<?xml version="1.0" standalone="no"?>
<!DOCTYPE svg PUBLIC "-//W3C//DTD SVG 20010904//EN"
 "http://www.w3.org/TR/2001/REC-SVG-20010904/DTD/svg10.dtd">
<svg version="1.0" xmlns="http://www.w3.org/2000/svg"
 width="270.000000pt" height="259.000000pt" viewBox="0 0 270.000000 259.000000"
 preserveAspectRatio="xMidYMid meet">

<g transform="translate(0.000000,259.000000) scale(0.100000,-0.100000)"
fill="#000000" stroke="none">
<path d="M1179 2526 c-2 -3 -36 -11 -76 -20 -314 -65 -562 -308 -650 -636 -23
-89 -23 -329 0 -417 47 -170 122 -297 248 -419 227 -218 568 -291 877 -188
339 113 572 445 572 817 0 297 -141 560 -385 721 -97 64 -149 88 -240 110 -38
10 -86 22 -106 27 -36 9 -232 13 -240 5z m-132 -99 c-4 -12 -22 -76 -47 -177
-5 -19 -14 -79 -21 -133 -11 -91 -15 -102 -46 -135 -66 -72 -113 -181 -113
-263 0 -26 -5 -51 -10 -54 -13 -8 -84 49 -192 155 -100 97 -103 106 -62 190
84 175 236 323 409 399 17 7 37 17 45 22 23 12 43 10 37 -4z m900 -284 c88
-127 130 -235 153 -394 10 -70 10 -102 0 -170 -8 -46 -15 -86 -17 -88 -2 -3
-36 27 -76 67 -40 39 -112 102 -160 139 -79 60 -91 74 -106 118 -32 96 -80
163 -168 232 l-52 41 67 27 c37 15 76 31 87 36 33 13 178 48 206 48 21 1 34
-11 66 -56z m-670 -261 c8 -5 13 -41 15 -97 l3 -90 60 0 60 0 3 80 c3 86 12
105 48 105 l24 0 0 -224 c0 -210 -1 -225 -19 -231 -44 -14 -50 0 -53 118 l-3
112 -60 0 -60 0 -3 -112 c-3 -110 -3 -113 -27 -119 -13 -3 -29 -3 -34 1 -7 4
-11 79 -11 216 0 119 -4 209 -9 209 -5 0 -21 -14 -36 -32 -22 -26 -26 -39 -24
-87 2 -44 -1 -55 -12 -53 -38 8 -51 70 -25 120 19 38 48 62 93 78 45 15 54 16
70 6z m-726 -79 c71 -75 129 -126 204 -179 64 -46 71 -55 91 -114 30 -86 88
-165 163 -222 l62 -48 -64 -29 c-35 -16 -81 -34 -103 -41 -89 -26 -141 -39
-185 -45 l-47 -7 -44 64 c-87 125 -127 226 -149 373 -14 99 -1 295 20 295 4 0
28 -21 52 -47z m1277 -170 c70 -56 207 -191 222 -217 11 -21 7 -34 -31 -113
-82 -166 -214 -297 -380 -376 -97 -47 -111 -48 -97 -4 30 97 52 206 64 315 6
59 12 73 49 117 23 28 52 68 63 90 23 47 52 154 52 196 0 16 3 29 6 29 3 0 27
-17 52 -37z"/>
<path d="M270 479 c-61 -24 -99 -93 -81 -143 18 -45 41 -33 41 22 0 50 21 92
46 92 12 0 14 -30 14 -185 l0 -185 30 0 30 0 0 105 0 106 58 -3 57 -3 3 -102
c3 -101 3 -103 26 -103 13 0 27 7 30 16 7 19 8 379 1 386 -3 3 -16 3 -30 0
-23 -4 -24 -9 -27 -81 l-3 -76 -55 0 -55 0 -3 83 c-3 82 -3 82 -30 81 -15 0
-38 -5 -52 -10z"/>
<path d="M1045 448 c-2 -7 -6 -76 -7 -154 -3 -144 -12 -179 -44 -167 -11 4
-14 28 -14 107 0 55 -4 106 -8 112 -8 12 -118 12 -145 0 -29 -13 -57 -80 -57
-134 0 -55 -17 -78 -67 -88 -24 -5 -36 -1 -53 16 -28 28 -22 52 16 62 69 18
102 102 53 140 -66 54 -149 -23 -149 -139 0 -105 88 -157 166 -98 40 31 42 31
66 0 22 -29 78 -34 98 -10 16 19 34 19 50 0 16 -20 49 -19 72 2 17 15 19 15
36 0 24 -22 60 -22 84 0 17 15 19 15 36 0 22 -20 54 -22 83 -4 17 10 23 9 26
0 3 -7 16 -13 29 -13 24 0 24 1 24 100 0 87 3 103 20 120 16 16 25 18 40 10
17 -9 20 -21 20 -91 0 -97 19 -139 61 -139 15 0 29 7 33 16 8 21 8 21 -13 27
-16 4 -19 17 -23 102 -4 88 -6 99 -28 117 -24 19 -53 20 -92 3 -16 -6 -18 0
-18 54 0 58 -1 61 -24 61 -13 0 -27 -7 -30 -16 -3 -9 -6 -78 -6 -154 0 -131
-1 -140 -22 -154 -38 -27 -48 -5 -48 101 0 74 3 95 15 99 8 4 15 10 15 15 0 5
-7 9 -15 9 -10 0 -15 10 -15 33 0 40 -5 46 -31 40 -13 -4 -19 -14 -19 -32 0
-15 -5 -32 -11 -38 -8 -8 -8 -17 0 -31 14 -27 14 -130 0 -171 -13 -37 -44 -42
-53 -8 -3 12 -6 86 -6 165 0 136 -1 142 -20 142 -11 0 -23 -6 -25 -12z m-337
-149 c4 -31 -32 -79 -59 -79 -14 0 -19 7 -19 26 0 68 71 117 78 53z m200 19
c13 -13 17 -134 6 -162 -8 -22 -39 -37 -58 -30 -8 3 -20 21 -26 40 -15 46 3
128 33 149 26 18 30 18 45 3z"/>
<path d="M1667 454 c-4 -4 -7 -77 -7 -162 0 -127 3 -159 17 -183 22 -37 66
-40 93 -6 l18 22 24 -22 c33 -31 82 -30 123 2 34 25 45 24 45 -7 0 -13 7 -18
25 -18 25 0 25 1 26 83 1 98 8 125 34 143 37 24 49 3 55 -99 3 -58 10 -100 19
-110 16 -20 53 -22 81 -5 15 10 22 10 32 0 19 -19 81 -15 106 8 33 31 35 59
12 156 -25 107 -31 118 -59 109 -15 -4 -26 -25 -42 -78 -12 -40 -28 -81 -35
-92 -8 -11 -14 -29 -14 -41 0 -25 -22 -38 -39 -21 -6 6 -11 47 -11 97 0 77 -2
89 -23 108 -27 25 -63 28 -91 7 -17 -13 -21 -13 -31 2 -7 10 -19 14 -29 10
-13 -5 -16 -22 -16 -91 0 -100 -4 -112 -41 -131 -39 -21 -56 -19 -84 9 -29 29
-24 56 10 56 13 0 37 14 55 30 28 27 32 35 27 66 -14 84 -110 86 -152 4 -8
-16 -15 -53 -15 -83 0 -59 -18 -94 -43 -84 -14 5 -17 29 -19 164 -3 150 -4
158 -23 161 -12 2 -24 0 -28 -4z m243 -143 c13 -25 -4 -64 -35 -81 -31 -17
-47 -5 -39 28 15 64 53 91 74 53z m415 -122 c5 -35 3 -48 -9 -58 -21 -18 -60
-5 -50 17 3 10 6 26 5 37 0 11 5 40 11 63 l13 44 11 -29 c7 -15 15 -49 19 -74z"/>
</g>
</svg>
